<svg id="logo" data-name="Capa 1" xmlns="http://www.w3.org/2000/svg" viewBox="0 0 450.9007 459.2054"><circle cx="225.4504" cy="225" r="225" style="fill:#0b3953"/><path d="M532.5424,422.6829A230.5332,230.5332,0,0,1,467.9241,582.298a223.8444,223.8444,0,0,1-139.4578,67.6862,209.7534,209.7534,0,0,1-28.29.9471,223.6147,223.6147,0,0,1-63.0589-11.29,219.3553,219.3553,0,0,1-39.9326-17.7767,227.309,227.309,0,0,1-75.6386-70.1,230.7616,230.7616,0,0,1-26.7288-53.16,233.9583,233.9583,0,0,1-10.6838-43.3c-1.2092-8.1481-1.8876-16.359-2.2787-24.5987a210.9688,210.9688,0,0,1,.1287-21.424,231.411,231.411,0,0,1,7.158-46.2608,229.045,229.045,0,0,1,14.3393-39.8631c1.3439-2.847,2.7379-5.6705,4.1235-8.4977.1671-.3409.2493-.8617.7114-.8757.4891-.0149.5514.5193.7019.8629q11.7894,26.9066,23.5609,53.8208,7.4164,16.9617,14.8107,33.9331,5.6424,12.9079,11.3062,25.8066c1.1509,2.6356,2.2661,3.103,4.9335,2.1221q14.3525-5.278,28.7252-10.5009c2.6264-.9546,3.3664-2.163,2.8231-4.9141-.851-4.3085-.3458-8.3749,2.3043-11.9841,5.22-7.1091,14.9453-6.4271,19.1824,1.33a21.2911,21.2911,0,0,1,1.1631,2.7557c.838,2.2358,2.091,2.8905,4.3146,2.0806q14.7916-5.3878,29.5636-10.83c2.3827-.8784,3.1048-2.3365,2.4044-4.8355q-3.5-12.4879-7.06-24.9592-7.7605-27.33-15.53-54.658-8.8536-31.15-17.711-62.3-4.6336-16.2955-9.2926-32.5838a1.7037,1.7037,0,0,1,1.0624-2.3543,224.9318,224.9318,0,0,1,57.9924-20.2379,229.18,229.18,0,0,1,33.1258-4.0907c3.1859-.1652,6.4056-.4567,9.5592-.3892,4.5333.0969,9.0853.0087,13.62.4286,6.6547.6163,13.32,1.0907,19.9326,2.1219a233.1893,233.1893,0,0,1,28.6746,6.2816,222.175,222.175,0,0,1,40.4761,16.094,224.4513,224.4513,0,0,1,41.0168,27.2089c5.1841,4.3263,10.2,8.8339,14.96,13.6106a229.5388,229.5388,0,0,1,38.3389,50.8148,231.2748,231.2748,0,0,1,27.1073,81.3q1.4168,10.394,1.89,20.8717C532.443,414.3394,532.4328,418.0823,532.5424,422.6829Z" transform="translate(-81.6416 -191.8488)" style="fill:#0b3953"/><path d="M170.5789,224.5645c-.069-4.1376-.0617-4.1179,2.6875-5.12,7.3717-2.6868,14.7484-5.3607,22.0925-8.1212,1.2151-.4567,1.5237-.1046,1.8307.9858q5.5065,19.5582,11.1041,39.0907c.3475,1.21.2188,1.807-1.0853,2.1842-1.7241.4985-3.3881,1.2077-5.0705,1.8461a3.103,3.103,0,0,0-2.1491,3.1091,2.832,2.832,0,0,0,3.8542,2.8373c1.6589-.5522,3.3179-1.1256,4.9187-1.8231,1.2655-.5513,1.7789-.317,2.1635,1.0752,2.3957,8.6717,4.8881,17.3167,7.3457,25.9713q14.787,52.0738,29.5732,104.148c.5556,1.9567.5567,1.9487-1.3534,2.6474-7.6486,2.7978-15.3063,5.5716-22.9318,8.4313-1.1991.45-1.7033.2568-2.29-.8858-4.0145-7.8222-13.0305-11.4653-20.5144-8.1318-6.6966,2.9829-10.0824,8.52-11.1538,15.6132a16.8345,16.8345,0,0,0-.0637,4.6332,1.2153,1.2153,0,0,1-.9313,1.5511q-11.9781,4.3443-23.9244,8.7753c-1.1292.42-1.5358.1767-1.8642-.9871q-8.61-30.5093-17.2994-60.9961-9.9167-34.9-19.8647-69.7916c-.3457-1.2089-.2455-1.8167,1.0483-2.2041,1.72-.515,3.4005-1.1781,5.0682-1.8515a3.1657,3.1657,0,0,0,1.8119-4.3059,2.5827,2.5827,0,0,0-3.3973-1.6157c-1.8029.5916-3.5962,1.2286-5.3459,1.96-1.1071.4629-1.52.2175-1.8443-.9434-3.0686-10.9715-6.1964-21.9265-9.3057-32.8866-.6274-2.2116-1.2155-4.435-1.8894-6.6322-.2711-.8842-.1477-1.3479.796-1.6894q12.0556-4.3622,24.0794-8.812c.9218-.3406,1.3039-.0263,1.7386.7762,2.5492,4.706,6.2683,8.0583,11.5965,9.1967,7.7874,1.6637,15.747-2.934,18.9621-10.78A20.9471,20.9471,0,0,0,170.5789,224.5645Z" transform="translate(-81.6416 -191.8488)" style="fill:#f6a418"/><path d="M145.105,383.1545q-3.7227-8.4977-7.4447-16.9956-6.7842-15.5178-13.5612-31.0388-6.0516-13.8519-12.1156-27.6985c-.3859-.8781-.3822-1.3921.5924-1.8835,1.7814-.8981,3.5068-1.9155,5.2108-2.9564a3.15,3.15,0,0,0,1.388-3.7631,2.5364,2.5364,0,0,0-3.9025-1.5894c-1.6736.8949-3.3384,1.8133-4.9531,2.8088-.9282.5722-1.3611.399-1.7884-.5882q-7.4124-17.1265-14.8987-34.221c-.4265-.9736-.3113-1.4634.6711-2.0011q7.0128-3.8385,13.9333-7.8443c1.1225-.6516,1.4635-.4516,1.7981.741q4.8182,17.1753,9.72,34.3271,10.4253,36.7017,20.8545,73.4023,2.2332,7.86,4.4678,15.7188c.28.9847.093,2.0806.7124,2.9841a.7733.7733,0,0,1,.0127,1.0724C145.3467,383.98,145.4657,383.1465,145.105,383.1545Z" transform="translate(-81.6416 -191.8488)" style="fill:#f7a418"/><path d="M145.105,383.1545c.7726.4242.6612-.1639.6844-.5978.7127.49.0852,1.4312.6625,1.9668.0763.4165.4106.9322-.3889,1.0123Z" transform="translate(-81.6416 -191.8488)" style="fill:#cf850f"/><path d="M146.063,385.5358a1.619,1.619,0,0,0,.3889-1.0123q.3.9192.6008,1.8385c.108.3138.2566.6479-.3119.6234Z" transform="translate(-81.6416 -191.8488)" style="fill:#be7913"/><path d="M146.7408,386.9854l.3119-.6234a4.65,4.65,0,0,1,.2611.6763c.049.2169.1323.5792-.1592.5972C146.8033,387.6573,146.7674,387.28,146.7408,386.9854Z" transform="translate(-81.6416 -191.8488)" style="fill:#945e15"/><path d="M321.3262,350.1565a47.0241,47.0241,0,0,1,11.9115,3.7509,33.4112,33.4112,0,0,1,16.8373,18.98c2.6163,6.993,3.0646,14.2764,2.7293,21.6578-.0476,1.0482-.6267,1.0632-1.3559,1.0995q-6.5043.324-13.008.66c-2.0932.1062-4.1889.1778-6.2788.329-.9049.0655-1.2706-.1556-1.1584-1.1377a8.5727,8.5727,0,0,0-.0672-3.2707,2.8653,2.8653,0,0,1-.7463-2.1833c-.4364-4.59-1.5911-8.9173-4.5364-12.6235a14.6867,14.6867,0,0,0-9.253-5.3,15.2257,15.2257,0,0,1-3.9037-.967c-7.8783.0694-13.9376,3.4583-17.5759,10.4222-4.6724,8.9435-3.9759,18.1292-.1559,27.1808,3.2274,7.6471,8.4369,13.9849,13.79,20.2069,6.7427,7.8373,13.86,15.3663,19.7583,23.901,5.5791,8.0732,9.6024,16.797,10.8641,26.6218a54.9876,54.9876,0,0,1-2.1209,23.2453,51.13,51.13,0,0,1-15.1814,23.9758,49.7994,49.7994,0,0,1-50.4688,8.8856c-1.0126-.4131-2.0035-.8791-3.0044-1.3206-5.5056-1.6937-9.4057-5.5063-12.8336-9.8721-5.3178-6.7729-8.0377-14.6229-9.3459-23.0422a61.6338,61.6338,0,0,1-.5888-11.34c.0543-1.8179.4293-2.0856,2.2025-2.3234,2.3837-.32,4.7835-.1865,7.165-.4119a1.9056,1.9056,0,0,1,1.5015.4929c3.233-.1329,6.4673-.2391,9.6984-.4091,1.954-.1027,1.9134-.1452,2.0107,1.76.3154,6.176,1.5173,12.1366,4.5782,17.5907a19.2643,19.2643,0,0,0,6.02,6.9085c2.8658.8441,5.4407,2.4436,8.4469,2.98a19.0973,19.0973,0,0,0,16.4282-4.534c5.8147-4.9188,8.6124-11.4647,10.0083-18.7659,1.4376-7.5191-.0316-14.581-3.2365-21.3829a75.9761,75.9761,0,0,0-10.6554-15.8787c-6.4273-7.7611-13.4053-15.0624-19.475-23.12-5.54-7.3543-10.1355-15.2229-12.2408-24.3075a52.3161,52.3161,0,0,1,3.5018-34.197,41.9409,41.9409,0,0,1,16.05-18.5008,43.9262,43.9262,0,0,1,18.4918-6.5126,49.1678,49.1678,0,0,1,10.8819-.2906A22.6968,22.6968,0,0,1,321.3262,350.1565Z" transform="translate(-81.6416 -191.8488)" style="fill:#f7a815"/><path d="M386.6537,373.6216c-7.6258-.02-15.2519-.077-22.8773-.0265-1.4462.01-2.14-.215-1.6943-1.82a13.2292,13.2292,0,0,0,.2487-2.0679,2.0828,2.0828,0,0,1-.465-1.6618c.6059-4.957,1.2392-9.91,1.9308-14.856.22-1.5694.5547-1.842,2.116-1.9538.6484-.0465,1.2986-.0394,1.9482-.0395q39.5781-.0034,79.1562.0124c1.117.0007,2.3256-.2816,3.2844.6286,3.6968.0165,7.3942.0779,11.09.0224,1.1194-.0168,1.33.3413,1.1848,1.3637q-1.3808,9.7081-2.6641,19.43c-.1287.9875-.6889.911-1.35.9106q-8.2452-.005-16.49-.0017c-6.0965,0-12.1931.0282-18.2891-.0247-1.1607-.01-1.5836.2483-1.7559,1.5054-2.0061,14.6338-4.1079,29.2544-6.1585,43.8822q-3.3774,24.0913-6.7163,48.1882-3.5248,25.1287-7.0914,50.2516-1.2726,9.0427-2.48,18.0946c-.12.9-.4254,1.2434-1.406,1.2367q-10.2684-.0707-20.5377-.0052c-.98.0053-1.208-.24-.9632-1.1917a20.3213,20.3213,0,0,0,.3417-2.6651,1.9792,1.9792,0,0,1-.4061-1.8058c1.039-7.6219,2.1369-15.2354,3.1872-22.8556,1.664-12.073,3.3838-24.1382,5.0674-36.2084,1.4077-10.0921,2.8521-20.1795,4.2585-30.2718q2.5024-17.9579,5.0269-35.9126c1.3139-9.4493,2.599-18.9033,4.0042-28.34.4544-3.0519.34-3.2236-2.7878-3.2291-2.2-.0038-4.3992.0077-6.5987-.0073A2.998,2.998,0,0,1,386.6537,373.6216Z" transform="translate(-81.6416 -191.8488)" style="fill:#f7a815"/><path d="M321.3262,350.1565a87.374,87.374,0,0,0-11.0555-.4351c-19.5281.8634-34.846,12.6469-40.5136,31.4137-4.6894,15.5279-2.4047,30.1391,6.0442,43.8928,4.94,8.0423,11.1683,15.0673,17.3252,22.1538,5.5989,6.444,11.3192,12.7938,15.7083,20.1819,3.731,6.28,6.2979,12.9735,6.0728,20.3558-.32,10.4733-3.7007,19.68-12.4262,26.1943a20.0584,20.0584,0,0,1-22.7769.4839,9.2885,9.2885,0,0,1-.8949-.7746c6.8669.2279,12.1135-2.9872,16.3532-8.0018,5.24-6.1983,7.5568-13.5952,7.7159-21.5867.149-7.4849-2.3277-14.3117-6.1595-20.6892-3.9584-6.588-8.9584-12.3663-13.9652-18.14-6.6741-7.6962-13.5609-15.2214-18.9155-23.9586-5.6618-9.2384-9.0262-19.1648-8.4766-30.1072.6541-13.02,4.7757-24.6546,14.4873-33.8228a41.4773,41.4773,0,0,1,21.1245-10.6338c9.9378-1.9,19.6715-1.3228,29.058,2.7456A13.8875,13.8875,0,0,1,321.3262,350.1565Z" transform="translate(-81.6416 -191.8488)" style="fill:#010101"/><path d="M386.6537,373.6216c3.9442-.0272,7.8887-.0341,11.8323-.0957,1.0107-.0158.8537.608.7746,1.184-.427,3.1107-.8818,6.2175-1.319,9.3268q-1.582,11.2524-3.1573,22.5057-1.5814,11.2526-3.168,22.5043-1.5692,11.1787-3.1292,22.3587-1.5774,11.2532-3.16,22.5055-1.5691,11.1789-3.1356,22.358-1.5625,11.18-3.1185,22.3607c-.6683,4.7372-1.37,9.47-2.0576,14.2042-3.6472-.0163-7.2948-.0736-10.9411-.0276-1.2821.0161-1.5668-.3178-1.3778-1.6422,2.1914-15.3583,4.2943-30.7292,6.449-46.0927,1.94-13.8322,3.9291-27.6574,5.87-41.49,1.6566-11.8063,3.262-23.62,4.9157-35.4267,1.3423-9.5839,2.7516-19.1586,4.0613-28.747A33.7113,33.7113,0,0,0,386.6537,373.6216Z" transform="translate(-81.6416 -191.8488)" style="fill:#010101"/><path d="M450.3014,351.8371c-.5975.021-1.1951.06-1.7926.06q-41.1939.0045-82.3878-.0224c-1.1861-.0014-1.5551.2719-1.695,1.5225-.6092,5.4461-1.3818,10.8739-2.0951,16.3091-3.6477-.0167-7.2956-.0669-10.9427-.0323-1.1718.0111-1.5345-.2512-1.3561-1.5381q1.2843-9.2643,2.3417-18.56c.149-1.293.65-1.614,1.8883-1.61,12.9436.0411,25.8873.0252,38.8311.0252q27.8115,0,55.623,0c2.1129,0,2.1074.0007,1.7916,2.0665C450.4176,350.6481,450.3691,351.2441,450.3014,351.8371Z" transform="translate(-81.6416 -191.8488)" style="fill:#010101"/><path d="M256.5024,487.7728c-3.0177.4558-6.0734.33-9.1058.5786-.8266.0679-1.2111.1478-1.2208,1.1431a62.6588,62.6588,0,0,0,3.5738,22.8922c3.5406,9.44,9.4188,16.901,18.446,21.6786a1.0063,1.0063,0,0,1,.2065.2045,38.2423,38.2423,0,0,1-18.3944-8.1418c-8.9706-7.38-13.2734-17.25-15.0738-28.4286a75.9583,75.9583,0,0,1-.8995-11.6243c-.0068-1.0918.24-1.5991,1.4767-1.6508,5.1816-.2169,10.3589-.5377,15.5373-.8283q1.9416-.1091,3.88-.2692c.8785-.0737,1.3.2513,1.277,1.1773A10.2562,10.2562,0,0,0,256.5024,487.7728Z" transform="translate(-81.6416 -191.8488)" style="fill:#010101"/><path d="M312.4966,371.1507c8.5336-.3912,15.1958,4.6585,17.4391,13.2671a24.6594,24.6594,0,0,1,1,7.8064c-3.3878.16-6.779.27-10.1616.5037-1.44.1-1.9311-.335-1.8572-1.8153a29.8651,29.8651,0,0,0-2.248-13.769A21.2587,21.2587,0,0,0,312.4966,371.1507Z" transform="translate(-81.6416 -191.8488)" style="fill:#010101"/><path d="M191.7685,379.8058c.0192,1.9505-.99,3.3057-2.3736,3.4983-1.3545.1884-2.5346-.7327-3.05-2.5273q-3.2256-11.24-6.4-22.4942-6.5586-23.0738-13.1135-46.1485a14.3828,14.3828,0,0,1-.5679-2.477,2.9278,2.9278,0,0,1,2.2266-3.2819,2.7176,2.7176,0,0,1,3.1142,2.1934c1.1922,4.0241,2.3241,8.0662,3.469,12.1043q8.1981,28.9132,16.3868,57.8293C191.6085,379.027,191.712,379.5647,191.7685,379.8058Z" transform="translate(-81.6416 -191.8488)" style="fill:#010101"/><path d="M223.6788,368.3152a3.1044,3.1044,0,0,1-2.4055,3.31,2.7566,2.7566,0,0,1-2.94-2.26c-1.4207-4.8426-2.7907-9.7-4.1707-14.5546q-7.83-27.5435-15.658-55.0873a4.8988,4.8988,0,0,1-.2025-3.0841,2.6624,2.6624,0,0,1,2.3761-1.9948,2.5107,2.5107,0,0,1,2.5156,1.5573,8.0228,8.0228,0,0,1,.51,1.4047q9.8442,34.6139,19.6728,69.2321C223.5394,367.4121,223.6174,368.0091,223.6788,368.3152Z" transform="translate(-81.6416 -191.8488)" style="fill:#010101"/><path d="M207.7468,374.0993a3.1826,3.1826,0,0,1-2.2805,3.3389c-1.4142.2507-2.6186-.6262-3.1181-2.3786q-4.8244-16.9255-9.619-33.86-5.0515-17.7936-10.1-35.5881a11.1463,11.1463,0,0,1-.4125-1.7463,3.0356,3.0356,0,0,1,2.1649-3.3346,2.6629,2.6629,0,0,1,3.1225,2.1453c1.21,4.1186,2.36,8.2551,3.5323,12.3846q8.1849,28.82,16.3666,57.6417C207.5519,373.2291,207.6652,373.7658,207.7468,374.0993Z" transform="translate(-81.6416 -191.8488)" style="fill:#010101"/><path d="M175.728,385.8529c.0213,1.792-.8966,3.0425-2.1959,3.2619a2.6587,2.6587,0,0,1-3.0042-2.1337c-1.6853-5.7506-3.3069-11.52-4.9452-17.2841s-3.2692-11.5279-4.8966-17.2938a8.1818,8.1818,0,0,1-.358-1.6022,2.7961,2.7961,0,0,1,2.1826-3.1324,2.6725,2.6725,0,0,1,3.0149,2.1089c.874,2.9181,1.6829,5.8557,2.5175,8.7856Q171.614,371.1,175.18,383.6374C175.4112,384.4519,175.5878,385.282,175.728,385.8529Z" transform="translate(-81.6416 -191.8488)" style="fill:#020201"/><path d="M192.6427,263.3941a2.9,2.9,0,0,1-1.9492,2.78q-8.1317,3.038-16.3038,5.9669a2.633,2.633,0,0,1-3.309-1.3267,3.2445,3.2445,0,0,1,.6361-3.972,3.8832,3.8832,0,0,1,1.1481-.6834c5.29-1.9542,10.5756-3.9193,15.8873-5.8119C190.8683,259.593,192.6119,260.888,192.6427,263.3941Z" transform="translate(-81.6416 -191.8488)" style="fill:#020201"/><path d="M163.3271,273.9656a3.08,3.08,0,0,1-2.0788,2.9938c-5.3328,1.97-10.6621,3.95-16.0138,5.8667a2.6643,2.6643,0,0,1-3.5788-1.5428,3.1887,3.1887,0,0,1,1.34-4.1424,22.0872,22.0872,0,0,1,2.5093-.9689c4.589-1.684,9.1722-3.3843,13.7726-5.0366A2.83,2.83,0,0,1,163.3271,273.9656Z" transform="translate(-81.6416 -191.8488)" style="fill:#030201"/></svg>