<svg xmlns="http://www.w3.org/2000/svg" viewBox="0 0 394.4502 307.359">
    <g id="MAP">
        <path id="M"
            d="M261.0821,431.6551c-.0681-3.3406-.1881-6.681-.1947-10.0217-.02-10.046.0051-20.0921.0119-30.1382.0072-10.8858.4865-11.3906,9.1844-16.1291,4.8955-2.6671,9.4986-6.0511,14.19-9.1978a9.1213,9.1213,0,0,1,5.324-1.6111q47.0386.0685,94.0774.0307a5.3558,5.3558,0,0,1,3.33.6363q11.069,7.6183,22.1751,15.1654a3.233,3.233,0,0,1,1.3715,2.9738q-.0568,24.0282-.09,48.0575-72.6637.02-145.3275.0464C263.7836,431.4679,262.4329,431.59,261.0821,431.6551Z"
            transform="translate(-140.7606 -313.7072)" style="fill:#c26591" />
        <path id="E"
            d="M535.1372,480.97a579.772,579.772,0,0,1-7.1307,61.2436c-1.6634,9.6061-3.646,19.1287-5.77,28.62-1.924,8.5976-7.0032,14.1165-13.1065,18.6622-5.7439,4.278-12.2837,6.4162-18.8172,8.4931-2.24.7121-3.3778-.6252-4.5314-2.6285q-15.6685-27.2083-31.4643-54.32c-1.3823-2.3843-2.7492-4.7813-4.0744-7.2076-.7513-1.3753-.8291-2.8694.4743-3.7969,9.6609-6.8751,11.5887-18.2581,13.48-29.7946,1.8083-11.0289,3.3073-22.1026,4.62-33.219.4774-4.0427,1.2669-4.5884,4.8071-4.006,17.3934,2.8617,34.7931,5.6771,52.1613,8.7288,1.9779.3476,3.937,1.1641,5.9844,1.3436C536.6778,473.5184,534.7793,477.7922,535.1372,480.97Z"
            transform="translate(-140.7606 -313.7072)" style="fill:#c26591" />
        <path id="A"
            d="M218.7218,522.1693c.4971,3.3221,2.8313,4.8447,4.9411,6.5378,3.2962,2.6452,3.4619,2.8273,1.1831,6.7675q-17.4524,30.1758-35.03,60.2562c-.8,1.3721-1.6745,2.9275-3.49,2.3373-8.636-2.8077-17.193-5.7433-24.2907-12.5713a29.0172,29.0172,0,0,1-8.3245-14.81,524.62,524.62,0,0,1-11-67.5653c-.7752-8.202-1.2789-16.4154-1.8646-24.6276-.3213-4.5036.11-5.311,3.9558-5.9588,13.6884-2.306,27.3934-4.4816,41.0889-6.7321q7.7226-1.2691,15.4307-2.6528c4.56-.8116,5.0978-.532,5.7879,4.5577,1.8387,13.5608,3.4259,27.171,6.0567,40.5724C213.8972,512.004,217.9516,520.77,218.7218,522.1693Z"
            transform="translate(-140.7606 -313.7072)" style="fill:#c26591" />
        <path id="L"
            d="M261.0821,431.6551c1.3508-.0653,2.7015-.1872,4.0522-.1878q72.6637-.0333,145.3275-.0464c-.6658,2.119.1471,4.197.1441,6.3034-.0179,12.3317-.0445,24.6645.0907,36.9946.0324,2.9462-.72,3.8613-3.3539,3.8562q-71.3361-.138-142.6724,0c-3.1779.0072-3.8652-1.3-3.7839-4.5863.3312-13.3971-.3021-26.8093.41-40.205A13.6229,13.6229,0,0,0,261.0821,431.6551Z"
            transform="translate(-140.7606 -313.7072)" style="fill:#80884e" />
        <path id="D"
            d="M482.3439,594.5187q-16.8711-29.292-33.7409-58.5849c-1.4252-2.49-3.0759-3.3-5.5264-2.6255q-8.0534,2.2173-16.1375,4.2866c-12.0831,3.118-24.1439,6.3925-36.4511,8.1649-2.9035.418-3.4972,2.319-3.4887,5.185.0408,13.762.0183,27.5242.0183,41.2864-1.2,7.8878-1.0268,15.7908-1.0094,23.689.0084,3.7749.9493,4.94,4.1587,4.3382,4.8464-.9088,9.74-1.1355,14.5953-1.8425,11.157-1.6248,22.294-3.3975,33.3651-5.6925a259.2159,259.2159,0,0,0,42.4139-12.1041C484.2714,599.1545,484.5146,598.2874,482.3439,594.5187Z"
            transform="translate(-140.7606 -313.7072)" style="fill:#80884e" />
        <path id="B"
            d="M287.98,599.5963c0,5.5044.035,11.0093-.0118,16.5132-.0339,3.9872-.6208,4.6741-4.106,4.1862-12.6086-1.7652-25.2463-3.2585-37.7986-5.5517A307.8406,307.8406,0,0,1,197.36,602.18c-8.855-3.17-8.4081-3.3588-3.7558-11.26,10.6679-18.1178,21.1269-36.3989,31.5455-54.7076,1.5123-2.6576,3.1621-3.47,5.7187-2.7423,12.8319,3.6542,25.7484,6.8782,38.7151,9.8312a88.7226,88.7226,0,0,0,12.9268,2.446c3.4148.2544,4.2517,2.1124,4.2759,5.4333.0629,8.6157.2085,17.2306.2608,25.8463.0458,7.5244.01,15.0494.01,22.5741Z"
            transform="translate(-140.7606 -313.7072)" style="fill:#80884e" />
        <path id="H"
            d="M307.5785,479.9985c5.0994,0,10.2016.1148,15.2968-.0527,2.2494-.074,2.882.903,2.86,3.3273q-.1128,12.1838.033,24.3694c.0251,1.97-.6691,2.5261-2.1779,2.5243-10.719-.013-21.4381-.0264-32.1571.0143-1.6481.0063-2.2329-.9136-2.2343-2.6216-.0067-8.2427-.0291-16.4854-.0083-24.728.0051-2.0452.93-2.9137,2.7784-2.8812,5.2022.0914,10.4064.0319,15.61.0319Z"
            transform="translate(-140.7606 -313.7072)" style="fill:#80884e" />
        <path id="I"
            d="M364.91,510.1686c-5.21.0046-10.4209-.0437-15.63.03-1.9071.027-2.7676-.4672-2.711-3.0343.1742-7.89.1219-15.7887.0378-23.6824-.0277-2.5965.7275-3.5656,3.08-3.5369q15.0038.1827,30.01.0022c2.6237-.0337,3.5663,1.2126,3.5457,4.0064-.0588,8.0053.0391,16.01-.307,24.0152-.0981,2.2691-1.1086,2.1906-2.3947,2.1924Q372.725,510.1717,364.91,510.1686Z"
            transform="translate(-140.7606 -313.7072)" style="fill:#80884e" />
        <path id="F"
            d="M216.9393,510.1693c-.77-1.4-.656-2.9615-.653-4.5141q.0219-11.29.0157-22.5673c.0363-2.2866.8737-3.1887,3.046-3.1528,9.0125.1491,18.0282.1006,27.0422.0332,1.7675-.0132,3.0883.2862,3.2362,2.6546-.0227,1.4177-.03,2.8514-.0709,4.2839-.2186,7.6372.4564,15.2941-.3834,22.9174-6.2873.7531-12.5925.1989-18.8885.3246C225.8367,510.2376,221.3875,510.1681,216.9393,510.1693Z"
            transform="translate(-140.7606 -313.7072)" style="fill:#80884e" />
        <path id="K"
            d="M439.1713,479.9987c4.6907,0,9.3832.0813,14.0715-.041,1.8216-.0475,2.6766.5069,2.6619,2.7525q-.082,12.5634.0078,25.1278c.0114,1.7812-.7324,2.31-2.0893,2.31q-14.5413-.0078-29.0826.0015c-1.4752.0015-1.88-.7485-1.86-2.45.0947-8.1354.1218-16.274.02-24.409-.0342-2.73.8685-3.4407,3.1383-3.3372,4.3712.1993,8.7541.0581,13.1322.0581Z"
            transform="translate(-140.7606 -313.7072)" style="fill:#80884e" />
        <path id="G"
            d="M269.2006,510.1834c-4.4813-.0013-8.9629-.0412-13.4436.0186-1.7771.0236-2.5652-.488-2.5193-2.8616.1524-7.892.1085-15.791.0263-23.6857-.0282-2.6981.6859-3.7462,3.2319-3.6948,8.6471.1745,17.2991.0954,25.9485.0155,2.1891-.02,3.3085.7905,3.2844,3.4859q-.1059,11.8417-.0358,23.685c.0161,2.2978-.7061,3.1389-2.7367,3.08C278.3737,510.0936,273.7861,510.1847,269.2006,510.1834Z"
            transform="translate(-140.7606 -313.7072)" style="fill:#80884e" />
        <path id="J"
            d="M402.6484,510.1634c-4.2706.0018-8.5446-.1149-12.81.05-2.179.0844-3.1834-.4977-3.1465-3.28.103-7.7691.0193-15.542-.039-23.3129-.0189-2.5185.8264-3.6777,3.1535-3.6544q13.28.1329,26.56.0041c1.8227-.0161,2.7217.6064,2.71,2.8-.0438,8.3694-.102,16.74-.0147,25.1082.0228,2.188-1,2.2867-2.3519,2.2851Q409.6793,510.1557,402.6484,510.1634Z"
            transform="translate(-140.7606 -313.7072)" style="fill:#80884e" />
        <path id="C"
            d="M382.8324,563.3879c-.703,17.6875-.7031,35.3867-.637,53.0852.0083,2.2315-.4413,3.104-2.5767,3.2-17.1568.7749-34.31,1.7681-51.4869,1.2483-11.64-.3522-23.2733-.9537-34.912-1.3552-1.5526-.0536-2.1973-.5117-2.1934-2.399.0137-6.4582-.1288-12.9166-.1441-19.3752-.035-14.8433.0763-29.6886-.1192-44.5288-.0466-3.5473,1.0443-4.3875,3.76-3.8966,19.3226,3.4925,38.7961,3.1417,58.25,2.7312a102.3138,102.3138,0,0,0,22.2814-2.6183c2.0414-.5,4.1376-.0976,6.2046-.692,1.4455-.4158,1.5613,1.1568,1.5663,2.39C382.8427,555.248,382.8324,559.318,382.8324,563.3879Z"
            transform="translate(-140.7606 -313.7072)" style="fill:#c26591" />
    </g>
    <g id="STAGE">
        <path id="none"
            d="M336.055,495.4559c-2.2153.001-4.4325-.0574-6.6453.0252-1.13.0422-1.6514-.2488-1.6323-1.64.0534-3.8845.01-7.771-.02-11.6565-.01-1.2592.4287-1.8388,1.6359-1.8271q6.8886.0663,13.7781.002c.9456-.008,1.4119.3032,1.406,1.4-.0227,4.1847-.0529,8.37-.0076,12.5541.0118,1.094-.5188,1.1433-1.22,1.1426Q339.7023,495.4521,336.055,495.4559Z"
            transform="translate(-140.7606 -313.7072)" style="fill:#80884e" />
        <path
            d="M335.1083,313.7479q19.2262-.0034,38.4526.0025c4.1388.0042,4.3979.2969,4.4059,5.1141q.0293,17.5848.0014,35.17c-.0112,4.57-.3654,4.9839-4.2493,4.9866-25.7392.0174-51.4785-.0236-77.2175.05-2.7766.0079-3.8922-.98-3.8565-4.33q.1973-18.4793.0136-36.9626c-.03-3.21,1.08-4.0889,3.6849-4.07C309.2646,313.801,322.1866,313.75,335.1083,313.7479Z"
            transform="translate(-140.7606 -313.7072)" style="fill:#3a3a3a" />
        <path
            d="M307.59,331.8521v-1.2012l.8848-.1875v-5.7481l-.8848-.1875v-1.207h6.8145v2.4609h-1.5527l-.0469-.8789h-2.2735v1.752h2.7247v1.5762h-2.7247v2.0332h2.3848l.0469-.92h1.5351v2.5079Z"
            transform="translate(-140.7606 -313.7072)" style="fill:#fff" />
        <path
            d="M318.166,331.9751a6.7137,6.7137,0,0,1-1.3974-.1377,5.5493,5.5493,0,0,1-1.169-.3779l-.0234-1.9746h1.3886l.2344.92a1.2733,1.2733,0,0,0,.3164.1318,1.6878,1.6878,0,0,0,.4629.0557,1.2454,1.2454,0,0,0,.6856-.1348.4044.4044,0,0,0,.1875-.34.469.469,0,0,0-.2139-.3662,2.3621,2.3621,0,0,0-.9111-.2959,3.135,3.135,0,0,1-1.6407-.7412,1.7723,1.7723,0,0,1-.5273-1.31,2.0221,2.0221,0,0,1,.2461-.9844,1.7824,1.7824,0,0,1,.8057-.7295,3.3894,3.3894,0,0,1,1.497-.2783,7.2891,7.2891,0,0,1,1.3623.123,4.8192,4.8192,0,0,1,1.0635.3106l-.0059,1.91h-1.3828l-.1757-.82a.9923.9923,0,0,0-.3047-.1406,1.4347,1.4347,0,0,0-.3809-.0469.94.94,0,0,0-.5742.1407.4389.4389,0,0,0-.1817.3632.49.49,0,0,0,.0791.2579.7545.7545,0,0,0,.3135.246,3.0931,3.0931,0,0,0,.6856.2168,4.1174,4.1174,0,0,1,1.6318.668,1.5483,1.5483,0,0,1,.5479,1.3008,1.8165,1.8165,0,0,1-.6709,1.4853A3.0152,3.0152,0,0,1,318.166,331.9751Z"
            transform="translate(-140.7606 -313.7072)" style="fill:#fff" />
        <path
            d="M324.5059,331.9751a3.05,3.05,0,0,1-1.6231-.416,2.7568,2.7568,0,0,1-1.043-1.1426,3.66,3.66,0,0,1-.3632-1.6582v-.1348a3.5925,3.5925,0,0,1,.3779-1.6816,2.8215,2.8215,0,0,1,1.0547-1.1367,2.9861,2.9861,0,0,1,1.5791-.41,3.9635,3.9635,0,0,1,1.5556.2754,4.4472,4.4472,0,0,1,1.0225.5742l-.0352,1.9981H325.502l-.2461-1.1485a.7554.7554,0,0,0-.2666-.164.8069.8069,0,0,0-.2784-.0645,1.1485,1.1485,0,0,0-.6972.19,1.049,1.049,0,0,0-.3692.5771,3.6614,3.6614,0,0,0-.1113.99v.1348a2.6425,2.6425,0,0,0,.1494.9873,1.0989,1.0989,0,0,0,.3779.5127.8353.8353,0,0,0,.4688.1523.8173.8173,0,0,0,.5713-.1845,1.2,1.2,0,0,0,.3135-.542h1.7226l.0235.0351a3.8092,3.8092,0,0,1-.4395,1.2569,1.8693,1.8693,0,0,1-.8291.75A3.2824,3.2824,0,0,1,324.5059,331.9751Z"
            transform="translate(-140.7606 -313.7072)" style="fill:#fff" />
        <path
            d="M330.8867,331.9751a3.1915,3.1915,0,0,1-1.626-.4014,2.8162,2.8162,0,0,1-1.0781-1.0986,3.2143,3.2143,0,0,1-.3838-1.5762v-.2168a4.0776,4.0776,0,0,1,.34-1.7109,2.6505,2.6505,0,0,1,.9961-1.1631,2.9008,2.9008,0,0,1,1.6113-.4131,2.9554,2.9554,0,0,1,1.456.3311,2.1559,2.1559,0,0,1,.9053.9726,3.6058,3.6058,0,0,1,.3106,1.5791v1.0606h-3.4864l-.0058.041a1.3,1.3,0,0,0,.2021.53,1.0736,1.0736,0,0,0,.4307.3662,1.5392,1.5392,0,0,0,.68.1347,3.3825,3.3825,0,0,0,.7822-.0908,4.2515,4.2515,0,0,0,.8115-.29l.4688,1.2422a3.8122,3.8122,0,0,1-1.043.5039A4.4359,4.4359,0,0,1,330.8867,331.9751Zm-.9551-3.9082h1.6114v-.1523a2.0412,2.0412,0,0,0-.0674-.5684.6243.6243,0,0,0-.2315-.3457.91.91,0,0,0-.9462.0322.8509.8509,0,0,0-.27.41,2.9063,2.9063,0,0,0-.12.5947Z"
            transform="translate(-140.7606 -313.7072)" style="fill:#fff" />
        <path
            d="M334.0391,331.8521v-1.2012l.7382-.1875v-3.5567l-.8789-.1875v-1.207h2.8243l.07.8848a2.31,2.31,0,0,1,.7763-.7383,2.0651,2.0651,0,0,1,1.0459-.2637,1.753,1.753,0,0,1,1.4063.6035,2.9193,2.9193,0,0,1,.5156,1.9161v2.5488l.7383.1875v1.2012H337.877v-1.2012l.5976-.1875v-2.5547a1.03,1.03,0,0,0-.2051-.7236.7736.7736,0,0,0-.5859-.2139,1.0909,1.0909,0,0,0-.4922.1025,1.005,1.005,0,0,0-.3574.3076v3.0821l.5273.1875v1.2012Z"
            transform="translate(-140.7606 -313.7072)" style="fill:#fff" />
        <path
            d="M343.8418,331.9751a2.1581,2.1581,0,0,1-1.5-.5215,1.9225,1.9225,0,0,1-.2607-2.4375,2.0915,2.0915,0,0,1,.9609-.7178,4.2985,4.2985,0,0,1,1.6084-.2607h.6621v-.375a.9937.9937,0,0,0-.2168-.6475.8323.8323,0,0,0-.6855-.2666,1.3383,1.3383,0,0,0-.3721.05,1.1213,1.1213,0,0,0-.3135.1436l-.1406.8086h-1.4473l-.0293-1.7637a9.3214,9.3214,0,0,1,1.128-.416,4.59,4.59,0,0,1,1.3154-.1758,3.2559,3.2559,0,0,1,2.0566.5947,2.0258,2.0258,0,0,1,.7617,1.6963v2.3379q0,.1349.003.2637a1.4151,1.4151,0,0,0,.0263.2461l.6856.1172v1.2012h-2.4024a2.0915,2.0915,0,0,1-.164-.2813,1.4018,1.4018,0,0,1-.1231-.3516,2.2068,2.2068,0,0,1-.6445.5567A1.85,1.85,0,0,1,343.8418,331.9751Zm.6328-1.4531a1.1945,1.1945,0,0,0,.4483-.0908,1.0456,1.0456,0,0,0,.39-.2725v-.9141h-.6387a1,1,0,0,0-.6416.1817.5862.5862,0,0,0-.2256.48.5684.5684,0,0,0,.1875.4512A.703.703,0,0,0,344.4746,330.522Z"
            transform="translate(-140.7606 -313.7072)" style="fill:#fff" />
        <path
            d="M348.7285,331.8521v-1.2012l.7383-.1875v-3.5567l-.8789-.1875v-1.207h2.8183l.0469.7734.0117.1582a1.8839,1.8839,0,0,1,.5245-.7939,1.2,1.2,0,0,1,.7822-.2549,2.696,2.696,0,0,1,.3047.0205,2.1912,2.1912,0,0,1,.3574.0733l-.2051,1.8867-.8789-.041a1.07,1.07,0,0,0-.4775.0674,1.1817,1.1817,0,0,0-.3487.2607v2.8008l.7383.1875v1.2012Z"
            transform="translate(-140.7606 -313.7072)" style="fill:#fff" />
        <path
            d="M353.8906,331.8521v-1.2012l.7442-.1875v-3.5567l-.8848-.1875v-1.207h2.9414v4.9512l.7383.1875v1.2012Zm.6856-7.5411v-1.6h2.1152v1.6Z"
            transform="translate(-140.7606 -313.7072)" style="fill:#fff" />
        <path
            d="M360.9805,331.9751a3.2513,3.2513,0,0,1-1.6729-.4072,2.6856,2.6856,0,0,1-1.06-1.1367,3.72,3.72,0,0,1-.3662-1.69v-.1172a3.6734,3.6734,0,0,1,.3662-1.6757,2.7328,2.7328,0,0,1,1.0576-1.14,3.5751,3.5751,0,0,1,3.331-.0029,2.7187,2.7187,0,0,1,1.0547,1.1367,3.6875,3.6875,0,0,1,.3662,1.6816v.1172a3.706,3.706,0,0,1-.3662,1.6846,2.715,2.715,0,0,1-1.0547,1.14A3.1762,3.1762,0,0,1,360.9805,331.9751Zm0-1.5645a.8661.8661,0,0,0,.6006-.2021,1.1658,1.1658,0,0,0,.3281-.5772,3.4068,3.4068,0,0,0,.1025-.8906v-.1172a3.2962,3.2962,0,0,0-.1025-.87,1.19,1.19,0,0,0-.3311-.58.9881.9881,0,0,0-1.2129,0,1.1717,1.1717,0,0,0-.3281.58,3.3858,3.3858,0,0,0-.1.87v.1172a3.5271,3.5271,0,0,0,.1.8965,1.1185,1.1185,0,0,0,.3281.5742A.9038.9038,0,0,0,360.9805,330.4106Z"
            transform="translate(-140.7606 -313.7072)" style="fill:#fff" />
        <path
            d="M175.3086,516.2607V515.06l.5976-.0879,2.543-7.2422h2.2266l2.5488,7.2422.5977.0879v1.2011h-3.1875V515.06l.5566-.1055-.2578-.9258h-2.7422l-.2461.9258.5567.1055v1.2011Zm3.3164-3.6738h1.8691l-.832-2.584-.0937-.2988h-.0352l-.1.3281Z"
            transform="translate(-140.7606 -313.7072)" style="fill:#1d1d1b" />
        <path
            d="M248.9736,575.7393v-1.2012l.8848-.1875v-5.7481l-.8848-.1875v-1.207h3.8614a4.5572,4.5572,0,0,1,2.5136.5918,1.97,1.97,0,0,1,.9024,1.7637,2.0567,2.0567,0,0,1-.2871,1.081,1.7829,1.7829,0,0,1-.8848.7237,1.9285,1.9285,0,0,1,.832.3779,1.6035,1.6035,0,0,1,.4746.6445,2.1652,2.1652,0,0,1,.1524.8174,2.2314,2.2314,0,0,1-.8379,1.8926,3.9566,3.9566,0,0,1-2.4316.6387Zm2.9414-4.9922h.8321a2.04,2.04,0,0,0,1.0869-.2315.7925.7925,0,0,0,.36-.7177.8922.8922,0,0,0-.3369-.7764,1.75,1.75,0,0,0-1.0224-.2432h-.92Zm0,3.4277h1.3536a1.4728,1.4728,0,0,0,.9169-.24.8718.8718,0,0,0,.3077-.7325,1.4094,1.4094,0,0,0-.1172-.6123.7623.7623,0,0,0-.3633-.3632,1.4764,1.4764,0,0,0-.6445-.12H251.915Z"
            transform="translate(-140.7606 -313.7072)" style="fill:#1d1d1b" />
        <path
            d="M339.7393,591.07a4.6775,4.6775,0,0,1-2.1739-.4922,3.6279,3.6279,0,0,1-1.5-1.4267,4.4364,4.4364,0,0,1-.5449-2.27v-.3926a4.5828,4.5828,0,0,1,.501-2.1768,3.6528,3.6528,0,0,1,1.43-1.4824,4.3381,4.3381,0,0,1,2.206-.5361,5.9732,5.9732,0,0,1,1.6963.2373,4.1783,4.1783,0,0,1,1.4971.8115v2.1973h-1.4942l-.205-1.26a2.8392,2.8392,0,0,0-.419-.2344,2.2681,2.2681,0,0,0-.4687-.1523,2.5837,2.5837,0,0,0-.5362-.0528,2.0663,2.0663,0,0,0-1.1367.3106,2.0228,2.0228,0,0,0-.7529.8994,3.4462,3.4462,0,0,0-.2666,1.4268v.4043a3.2519,3.2519,0,0,0,.2754,1.38,2.2105,2.2105,0,0,0,.7705.9288,2,2,0,0,0,1.1455.3339,3.4981,3.4981,0,0,0,.7031-.0732,4.76,4.76,0,0,0,.6914-.1963l.2051-1.207h1.5v2.15a5.1176,5.1176,0,0,1-1.3008.6123A5.8194,5.8194,0,0,1,339.7393,591.07Z"
            transform="translate(-140.7606 -313.7072)" style="fill:#1d1d1b" />
        <path
            d="M492.69,524.5889v-1.2012l.8848-.1875v-5.7481l-.8848-.1875v-1.207h6.8145v2.461h-1.5528l-.0468-.879h-2.2735v1.752h2.7246v1.5762h-2.7246v2.0332h2.3848l.0469-.92h1.5351v2.5078Z"
            transform="translate(-140.7606 -313.7072)" style="fill:#1d1d1b" />
        <path
            d="M228.58,498.4521V497.251l.8847-.1875v-5.7481l-.8847-.1875v-1.207h7.0254v2.5137h-1.5528l-.041-.9317h-2.49v1.9746h2.9v1.57h-2.9v2.0156l.8847.1875v1.2011Z"
            transform="translate(-140.7606 -313.7072)" style="fill:#1d1d1b" />
        <path
            d="M273.76,498.6982a4.5109,4.5109,0,0,1-2.2412-.5156,3.4521,3.4521,0,0,1-1.3975-1.4326,4.5113,4.5113,0,0,1-.4805-2.124v-.3867a5.0572,5.0572,0,0,1,.4746-2.2442,3.5877,3.5877,0,0,1,1.377-1.5234,4.106,4.106,0,0,1,2.18-.5508,6.01,6.01,0,0,1,1.7519.2666,4.2226,4.2226,0,0,1,1.5469.8408v1.9981h-1.4648l-.3106-1.084a1.4973,1.4973,0,0,0-.5654-.34,2.3725,2.3725,0,0,0-.8233-.1347,1.9355,1.9355,0,0,0-1.1777.3486,2.0946,2.0946,0,0,0-.7119.97,4.0257,4.0257,0,0,0-.2373,1.4414v.3985a3.3242,3.3242,0,0,0,.249,1.3418,1.9455,1.9455,0,0,0,.73.8789,2.1362,2.1362,0,0,0,1.1836.31,3.5651,3.5651,0,0,0,.7324-.0761,2.796,2.796,0,0,0,.5684-.17V495.81l-.961-.1172v-1.418h3.0235v3.5391a5.2222,5.2222,0,0,1-1.5615.665A7.6791,7.6791,0,0,1,273.76,498.6982Z"
            transform="translate(-140.7606 -313.7072)" style="fill:#1d1d1b" />
        <path
            d="M302.667,498.6982v-1.2011l.8848-.1875v-5.7481l-.8848-.1875v-1.207h3.8262v1.207l-.8848.1875v2.1563h3.1055v-2.1563l-.8848-.1875v-1.207h3.82v1.207l-.8848.1875V497.31l.8848.1875v1.2011h-3.82v-1.2011l.8848-.1875v-2.0157h-3.1055V497.31l.8848.1875v1.2011Z"
            transform="translate(-140.7606 -313.7072)" style="fill:#1d1d1b" />
        <path
            d="M364.291,498.4521V497.251l.8848-.1875v-5.7481l-.8848-.1875v-1.207h3.82v1.207l-.8847.1875v5.7481l.8847.1875v1.2011Z"
            transform="translate(-140.7606 -313.7072)" style="fill:#1d1d1b" />
        <path
            d="M401.1816,498.5752a4.33,4.33,0,0,1-1.7314-.3164,2.4563,2.4563,0,0,1-1.1367-.97,3.3291,3.3291,0,0,1-.4424-1.667l.0117-.0352h1.916a1.7022,1.7022,0,0,0,.36,1.11,1.0635,1.0635,0,0,0,.7588.2841,1.1538,1.1538,0,0,0,.5068-.1171.9535.9535,0,0,0,.4014-.378,1.3036,1.3036,0,0,0,.1582-.6826v-4.4883l-1.16-.1933v-1.2012H404.92v1.207l-.8906.1875v4.4883a3.0877,3.0877,0,0,1-.334,1.4824,2.2763,2.2763,0,0,1-.97.9551A3.2842,3.2842,0,0,1,401.1816,498.5752Z"
            transform="translate(-140.7606 -313.7072)" style="fill:#1d1d1b" />
        <path
            d="M435.09,498.6992V497.498l.8848-.1875v-5.748l-.8848-.1875v-1.207h3.75v1.207l-.8086.1875v5.748l.8086.1875v1.2012Zm2.4082-1.8574-1.0488-1.2012,4.2539-4.1894.0059-.0117-.9668-.0645v-1.207h3.9844v1.207l-.8028.17Zm2.4258,1.8574V497.498l.8555-.0644h.0117L438.74,494.627l1.4356-1.2715,2.9883,3.9961.873.1464v1.2012Z"
            transform="translate(-140.7606 -313.7072)" style="fill:#1d1d1b" />
        <path
            d="M331.5684,403.228v-1.2011l.8789-.1875v-5.7481l-.8789-.1875v-1.207h4.0254l2.0624,5.6191h.0352l2.0039-5.6191h3.9785v1.207l-.8847.1875v5.7481l.8847.1875v1.2011h-3.82v-1.2011l.92-.1875v-1.1133l.0469-4.0137-.0351-.0059-2.4141,6.5215h-1.6172l-2.4492-6.4453-.041.0059.1406,3.6562v1.3946l.99.1875v1.2011Z"
            transform="translate(-140.7606 -313.7072)" style="fill:#1d1d1b" />
        <path
            d="M416.4062,584.8926v-1.2012l.8965-.2168V577.791l-.8965-.2226v-1.2071h3.9961a3.8865,3.8865,0,0,1,2.045.5362,3.75,3.75,0,0,1,1.3945,1.4824,4.574,4.574,0,0,1,.5039,2.1826v.1348a4.5743,4.5743,0,0,1-.5039,2.1826,3.7306,3.7306,0,0,1-1.3945,1.48,3.9043,3.9043,0,0,1-2.045.5332Zm2.9532-1.5586h.9375a1.77,1.77,0,0,0,1.09-.3281,2.0026,2.0026,0,0,0,.6651-.9229,3.8991,3.8991,0,0,0,.2255-1.3857v-.1407a3.8753,3.8753,0,0,0-.2255-1.3828,2.0039,2.0039,0,0,0-.6651-.92,1.77,1.77,0,0,0-1.09-.3281h-.9375Z"
            transform="translate(-140.7606 -313.7072)" style="fill:#1d1d1b" />
        <path
            d="M335.0605,454.6953v-1.2012l.8848-.1875v-5.748l-.8848-.1875v-1.207h4.02v1.207l-1.0781.1875v5.56h2.0273l.0469-1.1894h1.57v2.7656Z"
            transform="translate(-140.7606 -313.7072)" style="fill:#1d1d1b" />
    </g>
</svg>