<svg width="29" height="28" viewBox="0 0 29 28" fill="none" xmlns="http://www.w3.org/2000/svg">
<path fill-rule="evenodd" clip-rule="evenodd" d="M0.666687 6.66667C0.666687 3.35296 3.35298 0.666667 6.66669 0.666667H14C16.9455 0.666667 19.3334 3.05448 19.3334 6V7.33333C19.3334 8.06971 18.7364 8.66667 18 8.66667C17.2636 8.66667 16.6667 8.06971 16.6667 7.33333V6C16.6667 4.52724 15.4728 3.33333 14 3.33333H6.66669C4.82574 3.33333 3.33335 4.82572 3.33335 6.66667V21.3333C3.33335 23.1743 4.82574 24.6667 6.66669 24.6667H14C15.4728 24.6667 16.6667 23.4728 16.6667 22V20.6667C16.6667 19.9303 17.2636 19.3333 18 19.3333C18.7364 19.3333 19.3334 19.9303 19.3334 20.6667V22C19.3334 24.9455 16.9455 27.3333 14 27.3333H6.66669C3.35298 27.3333 0.666687 24.6471 0.666687 21.3333V6.66667ZM22.3906 9.05719C22.9112 8.53649 23.7555 8.53649 24.2762 9.05719L28.2762 13.0572C28.7968 13.5779 28.7968 14.4221 28.2762 14.9428L24.2762 18.9428C23.7555 19.4635 22.9112 19.4635 22.3906 18.9428C21.8699 18.4221 21.8699 17.5779 22.3906 17.0572L24.1144 15.3333H12.6667C11.9303 15.3333 11.3334 14.7364 11.3334 14C11.3334 13.2636 11.9303 12.6667 12.6667 12.6667H24.1144L22.3906 10.9428C21.8699 10.4221 21.8699 9.57789 22.3906 9.05719Z" fill="#F9FBFA"/>
</svg>
