<svg width="152" height="137" viewBox="0 0 152 137" fill="none" xmlns="http://www.w3.org/2000/svg">
<path d="M129.348 91.8377H22.9392C13.6055 91.8377 6.01172 84.9965 6.01172 76.5873V60.6686C6.01172 52.2594 13.6055 45.418 22.9392 45.418H129.348C138.682 45.418 146.276 52.2594 146.276 60.6686V76.5873C146.276 84.9963 138.682 91.8377 129.348 91.8377ZM22.9392 48.7547C15.6468 48.7547 9.71405 54.0993 9.71405 60.6683V76.5871C9.71405 83.1564 15.6468 88.5005 22.9392 88.5005H129.348C136.641 88.5005 142.574 83.1561 142.574 76.5871V60.6683C142.574 54.099 136.641 48.7547 129.348 48.7547H22.9392Z" fill="#1F2D3D"/>
<path d="M38.1577 78.6713C37.5854 78.6713 37.021 78.4329 36.6588 77.9837L32.1288 72.3643L27.5733 77.9869C26.9703 78.731 25.8125 78.8942 24.9866 78.3502C24.161 77.8071 23.9805 76.763 24.5834 76.0191L29.1336 70.4029L21.7756 68.2374C20.8039 67.9514 20.2731 67.0092 20.5905 66.1334C20.9078 65.2577 21.9522 64.779 22.9248 65.0653L30.2781 67.2297L30.268 60.2547C30.2668 59.3335 31.0945 58.5856 32.1166 58.5842C32.1175 58.5842 32.1184 58.5842 32.119 58.5842C33.1403 58.5842 33.9688 59.3297 33.97 60.2507L33.9801 67.2305L41.3221 65.0658C42.2941 64.7803 43.3394 65.2574 43.657 66.1329C43.975 67.0087 43.4448 67.9508 42.4731 68.2374L35.1243 70.404L39.6534 76.0226C40.2543 76.7681 40.0711 77.8116 39.244 78.3529C38.916 78.5678 38.5351 78.6713 38.1577 78.6713ZM65.7641 78.6713C65.1927 78.6716 64.6289 78.4335 64.2667 77.9855L59.7207 72.3616L55.163 77.9866C54.5601 78.7307 53.4023 78.894 52.5764 78.35C51.7508 77.8068 51.5703 76.763 52.1732 76.0188L56.7234 70.4024L49.3686 68.2369C48.397 67.9508 47.8661 67.0087 48.1838 66.1329C48.5012 65.2574 49.5462 64.779 50.5181 65.0653L57.8676 67.2292L57.8575 60.2545C57.8563 59.3332 58.684 58.5853 59.7061 58.584C59.707 58.584 59.7079 58.584 59.7085 58.584C60.7297 58.584 61.5583 59.3295 61.5595 60.2505L61.5696 67.2302L68.9116 65.0655C69.8839 64.78 70.9286 65.2571 71.2465 66.1326C71.5645 67.0084 71.0343 67.9506 70.0626 68.2371L62.717 70.4026L67.2583 76.0204C67.8604 76.7651 67.6787 77.8089 66.8522 78.3513C66.5241 78.5672 66.1424 78.6713 65.7641 78.6713ZM81.2729 78.6713C80.895 78.6713 80.5135 78.5675 80.1848 78.3516C79.3583 77.8095 79.1764 76.7656 79.7778 76.0207L84.3162 70.4037L76.9581 68.2371C75.9864 67.9511 75.4559 67.0089 75.7733 66.1332C76.0909 65.2576 77.1362 64.7792 78.1076 65.0655L85.4609 67.2302V60.2526C85.4609 59.3313 86.2895 58.5842 87.3116 58.5842C88.3341 58.5842 89.1629 59.3313 89.1629 60.2526V67.2297L96.5052 65.0655C97.4775 64.7795 98.5219 65.2574 98.8399 66.1329C99.1575 67.0084 98.6273 67.9508 97.6556 68.2371L90.3074 70.4029L94.8484 76.0204C95.4505 76.7651 95.2688 77.8089 94.4426 78.3513C93.6158 78.8937 92.458 78.7299 91.8565 77.9855L87.3119 72.364L82.7706 77.9853C82.4084 78.4335 81.8444 78.6713 81.2729 78.6713ZM133.23 82.6224H114.861C112.735 82.6224 111.005 81.0646 111.005 79.1495V67.1564C111.005 65.2413 112.735 63.6835 114.861 63.6835H133.23C135.357 63.6835 137.086 65.2413 137.086 67.1564V79.1495C137.087 81.0646 135.357 82.6224 133.23 82.6224ZM114.861 67.0202C114.776 67.0202 114.707 67.0946 114.707 67.1564V79.1495C114.707 79.2244 114.776 79.2857 114.861 79.2857H133.23C133.315 79.2857 133.384 79.2244 133.384 79.1495V67.1564C133.384 67.0935 133.317 67.0202 133.23 67.0202H114.861Z" fill="#1F2D3D"/>
<path d="M130.988 67.0204H117.103C116.081 67.0204 115.252 66.2734 115.252 65.3521V59.0908C115.252 54.7185 119.201 51.1616 124.054 51.1616C128.898 51.1616 132.839 54.7185 132.839 59.0908V65.3521C132.839 66.2734 132.01 67.0204 130.988 67.0204ZM118.954 63.6835H129.137V59.0905C129.137 56.5584 126.857 54.4983 124.054 54.4983C121.242 54.4983 118.954 56.5584 118.954 59.0905V63.6835ZM124.054 74.5303C122.268 74.5303 120.814 73.2213 120.814 71.6129C120.814 70.0112 122.268 68.7081 124.054 68.7081C125.831 68.7081 127.277 70.0112 127.277 71.6129C127.277 73.2216 125.832 74.5303 124.054 74.5303ZM124.054 71.1933C123.79 71.1933 123.575 71.3814 123.575 71.6126C123.575 71.8508 123.79 72.0445 124.054 72.0445C124.309 72.0445 124.516 71.8505 124.516 71.6126C124.516 71.3854 124.305 71.1933 124.054 71.1933Z" fill="#1F2D3D"/>
<path d="M124.055 77.8005C123.032 77.8005 122.204 77.0534 122.204 76.1322V73.1532C122.204 72.2319 123.032 71.4849 124.055 71.4849C125.077 71.4849 125.906 72.2319 125.906 73.1532V76.1322C125.906 77.0534 125.077 77.8005 124.055 77.8005Z" fill="#1F2D3D"/>
</svg>
